<svg id="visual" viewBox="0 0 1920 1080" width="1920" height="1080" xmlns="http://www.w3.org/2000/svg" xmlns:xlink="http://www.w3.org/1999/xlink" version="1.1"><path d="M0 228L80 242.3C160 256.7 320 285.3 480 287.2C640 289 800 264 960 231.7C1120 199.3 1280 159.7 1440 136.2C1600 112.7 1760 105.3 1840 101.7L1920 98L1920 0L1840 0C1760 0 1600 0 1440 0C1280 0 1120 0 960 0C800 0 640 0 480 0C320 0 160 0 80 0L0 0Z" fill="#e4ece5"></path><path d="M0 293L80 309.2C160 325.3 320 357.7 480 354C640 350.3 800 310.7 960 272.8C1120 235 1280 199 1440 181C1600 163 1760 163 1840 163L1920 163L1920 96L1840 99.7C1760 103.3 1600 110.7 1440 134.2C1280 157.7 1120 197.3 960 229.7C800 262 640 287 480 285.2C320 283.3 160 254.7 80 240.3L0 226Z" fill="#d7e5d9"></path><path d="M0 401L80 426.2C160 451.3 320 501.7 480 510.7C640 519.7 800 487.3 960 438.7C1120 390 1280 325 1440 303.3C1600 281.7 1760 303.3 1840 314.2L1920 325L1920 161L1840 161C1760 161 1600 161 1440 179C1280 197 1120 233 960 270.8C800 308.7 640 348.3 480 352C320 355.7 160 323.3 80 307.2L0 291Z" fill="#cbdecd"></path><path d="M0 498L80 510.5C160 523 320 548 480 544.3C640 540.7 800 508.3 960 474.2C1120 440 1280 404 1440 386C1600 368 1760 368 1840 368L1920 368L1920 323L1840 312.2C1760 301.3 1600 279.7 1440 301.3C1280 323 1120 388 960 436.7C800 485.3 640 517.7 480 508.7C320 499.7 160 449.3 80 424.2L0 399Z" fill="#bed7c1"></path><path d="M0 584L80 600.2C160 616.3 320 648.7 480 646.8C640 645 800 609 960 560.5C1120 512 1280 451 1440 433C1600 415 1760 440 1840 452.5L1920 465L1920 366L1840 366C1760 366 1600 366 1440 384C1280 402 1120 438 960 472.2C800 506.3 640 538.7 480 542.3C320 546 160 521 80 508.5L0 496Z" fill="#b2d0b5"></path><path d="M0 876L80 854.3C160 832.7 320 789.3 480 762.3C640 735.3 800 724.7 960 758.8C1120 793 1280 872 1440 904.3C1600 936.7 1760 922.3 1840 915.2L1920 908L1920 463L1840 450.5C1760 438 1600 413 1440 431C1280 449 1120 510 960 558.5C800 607 640 643 480 644.8C320 646.7 160 614.3 80 598.2L0 582Z" fill="#a6c9a9"></path><path d="M0 919L80 897.3C160 875.7 320 832.3 480 809C640 785.7 800 782.3 960 813C1120 843.7 1280 908.3 1440 942.5C1600 976.7 1760 980.3 1840 982.2L1920 984L1920 906L1840 913.2C1760 920.3 1600 934.7 1440 902.3C1280 870 1120 791 960 756.8C800 722.7 640 733.3 480 760.3C320 787.3 160 830.7 80 852.3L0 874Z" fill="#99c29d"></path><path d="M0 1038L80 1003.8C160 969.7 320 901.3 480 883.3C640 865.3 800 897.7 960 928.2C1120 958.7 1280 987.3 1440 999.8C1600 1012.3 1760 1008.7 1840 1006.8L1920 1005L1920 982L1840 980.2C1760 978.3 1600 974.7 1440 940.5C1280 906.3 1120 841.7 960 811C800 780.3 640 783.7 480 807C320 830.3 160 873.7 80 895.3L0 917Z" fill="#8dbb92"></path><path d="M0 1081L80 1081C160 1081 320 1081 480 1081C640 1081 800 1081 960 1081C1120 1081 1280 1081 1440 1081C1600 1081 1760 1081 1840 1081L1920 1081L1920 1003L1840 1004.8C1760 1006.7 1600 1010.3 1440 997.8C1280 985.3 1120 956.7 960 926.2C800 895.7 640 863.3 480 881.3C320 899.3 160 967.7 80 1001.8L0 1036Z" fill="#81b486"></path></svg>