<svg id="visual" viewBox="0 0 1920 1080" width="1920" height="1080" xmlns="http://www.w3.org/2000/svg" xmlns:xlink="http://www.w3.org/1999/xlink" version="1.1"><rect x="0" y="0" width="1920" height="1080" fill="#e5eee6"></rect><path d="M0 467L45.7 449C91.3 431 182.7 395 274.2 397C365.7 399 457.3 439 548.8 434.7C640.3 430.3 731.7 381.7 823 375.7C914.3 369.7 1005.7 406.3 1097 419C1188.3 431.7 1279.7 420.3 1371.2 410.7C1462.7 401 1554.3 393 1645.8 405.8C1737.3 418.7 1828.7 452.3 1874.3 469.2L1920 486L1920 1081L1874.3 1081C1828.7 1081 1737.3 1081 1645.8 1081C1554.3 1081 1462.7 1081 1371.2 1081C1279.7 1081 1188.3 1081 1097 1081C1005.7 1081 914.3 1081 823 1081C731.7 1081 640.3 1081 548.8 1081C457.3 1081 365.7 1081 274.2 1081C182.7 1081 91.3 1081 45.7 1081L0 1081Z" fill="#e5eee6"></path><path d="M0 439L45.7 467.5C91.3 496 182.7 553 274.2 566.5C365.7 580 457.3 550 548.8 524.8C640.3 499.7 731.7 479.3 823 480C914.3 480.7 1005.7 502.3 1097 497.7C1188.3 493 1279.7 462 1371.2 454.5C1462.7 447 1554.3 463 1645.8 460.2C1737.3 457.3 1828.7 435.7 1874.3 424.8L1920 414L1920 1081L1874.3 1081C1828.7 1081 1737.3 1081 1645.8 1081C1554.3 1081 1462.7 1081 1371.2 1081C1279.7 1081 1188.3 1081 1097 1081C1005.7 1081 914.3 1081 823 1081C731.7 1081 640.3 1081 548.8 1081C457.3 1081 365.7 1081 274.2 1081C182.7 1081 91.3 1081 45.7 1081L0 1081Z" fill="#d3e4d5"></path><path d="M0 623L45.7 635.2C91.3 647.3 182.7 671.7 274.2 682.3C365.7 693 457.3 690 548.8 665C640.3 640 731.7 593 823 574.5C914.3 556 1005.7 566 1097 590.2C1188.3 614.3 1279.7 652.7 1371.2 675.5C1462.7 698.3 1554.3 705.7 1645.8 680.3C1737.3 655 1828.7 597 1874.3 568L1920 539L1920 1081L1874.3 1081C1828.7 1081 1737.3 1081 1645.8 1081C1554.3 1081 1462.7 1081 1371.2 1081C1279.7 1081 1188.3 1081 1097 1081C1005.7 1081 914.3 1081 823 1081C731.7 1081 640.3 1081 548.8 1081C457.3 1081 365.7 1081 274.2 1081C182.7 1081 91.3 1081 45.7 1081L0 1081Z" fill="#c1d9c4"></path><path d="M0 764L45.7 760C91.3 756 182.7 748 274.2 739C365.7 730 457.3 720 548.8 709.2C640.3 698.3 731.7 686.7 823 684.8C914.3 683 1005.7 691 1097 709.7C1188.3 728.3 1279.7 757.7 1371.2 764.3C1462.7 771 1554.3 755 1645.8 756C1737.3 757 1828.7 775 1874.3 784L1920 793L1920 1081L1874.3 1081C1828.7 1081 1737.3 1081 1645.8 1081C1554.3 1081 1462.7 1081 1371.2 1081C1279.7 1081 1188.3 1081 1097 1081C1005.7 1081 914.3 1081 823 1081C731.7 1081 640.3 1081 548.8 1081C457.3 1081 365.7 1081 274.2 1081C182.7 1081 91.3 1081 45.7 1081L0 1081Z" fill="#afcfb3"></path><path d="M0 853L45.7 848.7C91.3 844.3 182.7 835.7 274.2 835.3C365.7 835 457.3 843 548.8 839.2C640.3 835.3 731.7 819.7 823 806C914.3 792.3 1005.7 780.7 1097 779.2C1188.3 777.7 1279.7 786.3 1371.2 808.8C1462.7 831.3 1554.3 867.7 1645.8 884.7C1737.3 901.7 1828.7 899.3 1874.3 898.2L1920 897L1920 1081L1874.3 1081C1828.7 1081 1737.3 1081 1645.8 1081C1554.3 1081 1462.7 1081 1371.2 1081C1279.7 1081 1188.3 1081 1097 1081C1005.7 1081 914.3 1081 823 1081C731.7 1081 640.3 1081 548.8 1081C457.3 1081 365.7 1081 274.2 1081C182.7 1081 91.3 1081 45.7 1081L0 1081Z" fill="#9ec5a2"></path><path d="M0 922L45.7 936.8C91.3 951.7 182.7 981.3 274.2 995.5C365.7 1009.7 457.3 1008.3 548.8 1006C640.3 1003.7 731.7 1000.3 823 986C914.3 971.7 1005.7 946.3 1097 927.2C1188.3 908 1279.7 895 1371.2 894.7C1462.7 894.3 1554.3 906.7 1645.8 917.2C1737.3 927.7 1828.7 936.3 1874.3 940.7L1920 945L1920 1081L1874.3 1081C1828.7 1081 1737.3 1081 1645.8 1081C1554.3 1081 1462.7 1081 1371.2 1081C1279.7 1081 1188.3 1081 1097 1081C1005.7 1081 914.3 1081 823 1081C731.7 1081 640.3 1081 548.8 1081C457.3 1081 365.7 1081 274.2 1081C182.7 1081 91.3 1081 45.7 1081L0 1081Z" fill="#8cbb92"></path></svg>