<svg xmlns="http://www.w3.org/2000/svg"  viewBox="3 3 42 42" width="90px" height="90px"><path fill="none" stroke="#000" stroke-linecap="round" stroke-linejoin="round" stroke-width="3" d="M38.8,35c-3.4,4.5-8.8,7.5-14.8,7.5C13.8,42.5,5.5,34.2,5.5,24c0-2.1,0.4-4.1,1-6"/><path fill="none" stroke="#000" stroke-linecap="round" stroke-linejoin="round" stroke-width="3" d="M12.4,9.6C15.6,7,19.6,5.5,24,5.5c10.2,0,18.5,8.3,18.5,18.5c0,1.2-0.1,2.4-0.3,3.5"/><circle cx="24" cy="18" r="4.5" fill="none" stroke="#000" stroke-width="3"/><path fill="none" stroke="#000" stroke-width="3" d="M32.5,30.3c0-1.6-1.3-2.8-2.8-2.8H18.3c-1.6,0-2.8,1.3-2.8,2.8v0c0,2.7,3.4,5.2,8.5,5.2S32.5,33,32.5,30.3	L32.5,30.3z"/></svg>